%TF.GenerationSoftware,KiCad,Pcbnew,8.0.2*%
%TF.CreationDate,2024-05-19T15:43:29+02:00*%
%TF.ProjectId,schematic,73636865-6d61-4746-9963-2e6b69636164,rev?*%
%TF.SameCoordinates,Original*%
%TF.FileFunction,Soldermask,Top*%
%TF.FilePolarity,Negative*%
%FSLAX46Y46*%
G04 Gerber Fmt 4.6, Leading zero omitted, Abs format (unit mm)*
G04 Created by KiCad (PCBNEW 8.0.2) date 2024-05-19 15:43:29*
%MOMM*%
%LPD*%
G01*
G04 APERTURE LIST*
G04 Aperture macros list*
%AMRoundRect*
0 Rectangle with rounded corners*
0 $1 Rounding radius*
0 $2 $3 $4 $5 $6 $7 $8 $9 X,Y pos of 4 corners*
0 Add a 4 corners polygon primitive as box body*
4,1,4,$2,$3,$4,$5,$6,$7,$8,$9,$2,$3,0*
0 Add four circle primitives for the rounded corners*
1,1,$1+$1,$2,$3*
1,1,$1+$1,$4,$5*
1,1,$1+$1,$6,$7*
1,1,$1+$1,$8,$9*
0 Add four rect primitives between the rounded corners*
20,1,$1+$1,$2,$3,$4,$5,0*
20,1,$1+$1,$4,$5,$6,$7,0*
20,1,$1+$1,$6,$7,$8,$9,0*
20,1,$1+$1,$8,$9,$2,$3,0*%
G04 Aperture macros list end*
%ADD10C,1.600000*%
%ADD11R,1.600000X1.600000*%
%ADD12O,1.600000X1.600000*%
%ADD13RoundRect,0.102000X-0.787500X-0.787500X0.787500X-0.787500X0.787500X0.787500X-0.787500X0.787500X0*%
%ADD14C,1.779000*%
%ADD15C,4.320000*%
%ADD16RoundRect,0.150000X-0.150000X0.825000X-0.150000X-0.825000X0.150000X-0.825000X0.150000X0.825000X0*%
%ADD17O,1.200000X2.000000*%
%ADD18R,1.700000X1.700000*%
%ADD19O,1.700000X1.700000*%
%ADD20O,2.000000X1.200000*%
%ADD21RoundRect,0.250000X-0.650000X0.412500X-0.650000X-0.412500X0.650000X-0.412500X0.650000X0.412500X0*%
%ADD22O,2.304000X4.404000*%
%ADD23O,3.304000X1.754000*%
%ADD24RoundRect,0.102000X-0.862500X-0.862500X0.862500X-0.862500X0.862500X0.862500X-0.862500X0.862500X0*%
%ADD25C,1.929000*%
%ADD26C,4.470000*%
%ADD27RoundRect,0.250000X0.412500X0.650000X-0.412500X0.650000X-0.412500X-0.650000X0.412500X-0.650000X0*%
%ADD28C,3.200000*%
G04 APERTURE END LIST*
D10*
%TO.C,C1*%
X141500000Y-125750000D03*
X141500000Y-123250000D03*
%TD*%
%TO.C,C4*%
X173500000Y-109750000D03*
X173500000Y-107250000D03*
%TD*%
D11*
%TO.C,D1*%
X116500000Y-112810000D03*
D12*
X116500000Y-105190000D03*
%TD*%
D13*
%TO.C,J2*%
X121460000Y-136525000D03*
D14*
X124230000Y-136525000D03*
X127000000Y-136525000D03*
X129770000Y-136525000D03*
X132540000Y-136525000D03*
X122845000Y-139365000D03*
X125615000Y-139365000D03*
X128385000Y-139365000D03*
X131155000Y-139365000D03*
D15*
X114505000Y-137945000D03*
X139495000Y-137945000D03*
%TD*%
D10*
%TO.C,R7*%
X146050000Y-101600000D03*
D12*
X153670000Y-101600000D03*
%TD*%
D16*
%TO.C,U3*%
X170245000Y-105475000D03*
X168975000Y-105475000D03*
X167705000Y-105475000D03*
X166435000Y-105475000D03*
X165165000Y-105475000D03*
X163895000Y-105475000D03*
X162625000Y-105475000D03*
X162625000Y-110425000D03*
X163895000Y-110425000D03*
X165165000Y-110425000D03*
X166435000Y-110425000D03*
X167705000Y-110425000D03*
X168975000Y-110425000D03*
X170245000Y-110425000D03*
%TD*%
D10*
%TO.C,R4*%
X135890000Y-101600000D03*
D12*
X143510000Y-101600000D03*
%TD*%
D10*
%TO.C,R19*%
X123825000Y-105410000D03*
D12*
X123825000Y-113030000D03*
%TD*%
D16*
%TO.C,U4*%
X158750000Y-105540000D03*
X157480000Y-105540000D03*
X156210000Y-105540000D03*
X154940000Y-105540000D03*
X153670000Y-105540000D03*
X152400000Y-105540000D03*
X151130000Y-105540000D03*
X151130000Y-110490000D03*
X152400000Y-110490000D03*
X153670000Y-110490000D03*
X154940000Y-110490000D03*
X156210000Y-110490000D03*
X157480000Y-110490000D03*
X158750000Y-110490000D03*
%TD*%
D10*
%TO.C,R15*%
X154940000Y-121920000D03*
D12*
X162560000Y-121920000D03*
%TD*%
D10*
%TO.C,R5*%
X143510000Y-105410000D03*
D12*
X135890000Y-105410000D03*
%TD*%
D17*
%TO.C,U2*%
X173990000Y-93980000D03*
X171450000Y-93980000D03*
X168910000Y-93980000D03*
X166370000Y-93980000D03*
X163830000Y-93980000D03*
X161290000Y-93980000D03*
X158750000Y-93980000D03*
X156210000Y-93980000D03*
X153670000Y-93980000D03*
X151130000Y-93980000D03*
X148590000Y-93980000D03*
X146050000Y-93980000D03*
X143510000Y-93980000D03*
X140970000Y-93980000D03*
X138430000Y-93980000D03*
X135890000Y-93980000D03*
X133350000Y-93980000D03*
X130810000Y-93980000D03*
X128270000Y-93980000D03*
X125730000Y-93980000D03*
X123190000Y-93980000D03*
X120650000Y-93980000D03*
X118110000Y-93980000D03*
X115570000Y-93980000D03*
X115570000Y-116980000D03*
X118110000Y-116980000D03*
X120650000Y-116980000D03*
X123190000Y-116980000D03*
X125730000Y-116980000D03*
X128270000Y-116980000D03*
X130810000Y-116980000D03*
X133350000Y-116980000D03*
X135890000Y-116980000D03*
X138430000Y-116980000D03*
X140970000Y-116980000D03*
X143510000Y-116980000D03*
X146050000Y-116980000D03*
X148590000Y-116980000D03*
X151130000Y-116980000D03*
X153670000Y-116980000D03*
X156210000Y-116980000D03*
X158750000Y-116980000D03*
X161290000Y-116980000D03*
X163830000Y-116980000D03*
X166370000Y-116980000D03*
X168910000Y-116980000D03*
X171450000Y-116980000D03*
X173990000Y-116980000D03*
%TD*%
D18*
%TO.C,J3*%
X128295000Y-130785000D03*
D19*
X130835000Y-130785000D03*
X133375000Y-130785000D03*
X135915000Y-130785000D03*
X138455000Y-130785000D03*
X140995000Y-130785000D03*
%TD*%
D10*
%TO.C,R16*%
X144780000Y-125730000D03*
D12*
X152400000Y-125730000D03*
%TD*%
D20*
%TO.C,JP1*%
X124460000Y-126365000D03*
X124460000Y-123825000D03*
X124460000Y-121285000D03*
%TD*%
D10*
%TO.C,R13*%
X165100000Y-125730000D03*
D12*
X172720000Y-125730000D03*
%TD*%
D10*
%TO.C,R1*%
X128270000Y-105410000D03*
D12*
X128270000Y-113030000D03*
%TD*%
D21*
%TO.C,C6*%
X128270000Y-122555000D03*
X128270000Y-125680000D03*
%TD*%
D22*
%TO.C,J1*%
X116205000Y-126365000D03*
D23*
X120705000Y-126365000D03*
%TD*%
D24*
%TO.C,J5*%
X163048250Y-133572500D03*
D25*
X160758250Y-133572500D03*
X158468250Y-133572500D03*
X156178250Y-133572500D03*
X153888250Y-133572500D03*
X164193250Y-136112500D03*
X161903250Y-136112500D03*
X159613250Y-136112500D03*
X157323250Y-136112500D03*
X155033250Y-136112500D03*
X163048250Y-138652500D03*
X160758250Y-138652500D03*
X158468250Y-138652500D03*
X156178250Y-138652500D03*
X153888250Y-138652500D03*
D26*
X146223250Y-136112500D03*
X171213250Y-136112500D03*
%TD*%
D10*
%TO.C,R9*%
X156210000Y-97790000D03*
D12*
X163830000Y-97790000D03*
%TD*%
D10*
%TO.C,R3*%
X135890000Y-97790000D03*
D12*
X143510000Y-97790000D03*
%TD*%
D10*
%TO.C,R6*%
X146050000Y-97790000D03*
D12*
X153670000Y-97790000D03*
%TD*%
D10*
%TO.C,R10*%
X135890000Y-109220000D03*
D12*
X143510000Y-109220000D03*
%TD*%
D27*
%TO.C,C5*%
X162217500Y-113665000D03*
X159092500Y-113665000D03*
%TD*%
D10*
%TO.C,R8*%
X156210000Y-101600000D03*
D12*
X163830000Y-101600000D03*
%TD*%
D28*
%TO.C,REF\u002A\u002A*%
X179070000Y-95250000D03*
%TD*%
D10*
%TO.C,R18*%
X120015000Y-113030000D03*
D12*
X120015000Y-105410000D03*
%TD*%
D28*
%TO.C,REF\u002A\u002A*%
X106680000Y-142875000D03*
%TD*%
D10*
%TO.C,R17*%
X144780000Y-121920000D03*
D12*
X152400000Y-121920000D03*
%TD*%
D16*
%TO.C,U1*%
X138430000Y-121985000D03*
X137160000Y-121985000D03*
X135890000Y-121985000D03*
X134620000Y-121985000D03*
X133350000Y-121985000D03*
X132080000Y-121985000D03*
X130810000Y-121985000D03*
X130810000Y-126935000D03*
X132080000Y-126935000D03*
X133350000Y-126935000D03*
X134620000Y-126935000D03*
X135890000Y-126935000D03*
X137160000Y-126935000D03*
X138430000Y-126935000D03*
%TD*%
D10*
%TO.C,C2*%
X128270000Y-100290000D03*
X128270000Y-97790000D03*
%TD*%
%TO.C,C3*%
X131445000Y-97790000D03*
X131445000Y-100290000D03*
%TD*%
%TO.C,R14*%
X154940000Y-125730000D03*
D12*
X162560000Y-125730000D03*
%TD*%
D28*
%TO.C,REF\u002A\u002A*%
X179070000Y-142875000D03*
%TD*%
D10*
%TO.C,C7*%
X147320000Y-109220000D03*
X147320000Y-106720000D03*
%TD*%
%TO.C,R12*%
X165100000Y-121920000D03*
D12*
X172720000Y-121920000D03*
%TD*%
D10*
%TO.C,R2*%
X132080000Y-113030000D03*
D12*
X132080000Y-105410000D03*
%TD*%
D10*
%TO.C,R11*%
X143510000Y-113030000D03*
D12*
X135890000Y-113030000D03*
%TD*%
D28*
%TO.C,REF\u002A\u002A*%
X106680000Y-95250000D03*
%TD*%
M02*
