M48
; DRILL file {KiCad 8.0.2} date 2024-05-19T15:42:22+0200
; FORMAT={-:-/ absolute / inch / decimal}
; #@! TF.CreationDate,2024-05-19T15:42:22+02:00
; #@! TF.GenerationSoftware,Kicad,Pcbnew,8.0.2
; #@! TF.FileFunction,Plated,1,2,PTH
FMAT,2
INCH
; #@! TA.AperFunction,Plated,PTH,ViaDrill
T1C0.0118
; #@! TA.AperFunction,Plated,PTH,ComponentDrill
T2C0.0315
; #@! TA.AperFunction,Plated,PTH,ComponentDrill
T3C0.0394
; #@! TA.AperFunction,Plated,PTH,ComponentDrill
T4C0.0413
; #@! TA.AperFunction,Plated,PTH,ComponentDrill
T5C0.0453
; #@! TA.AperFunction,Plated,PTH,ComponentDrill
T6C0.0512
; #@! TA.AperFunction,Plated,PTH,ComponentDrill
T7C0.1220
; #@! TA.AperFunction,Plated,PTH,ComponentDrill
T8C0.1280
%
G90
G05
T1
X6.275Y-4.475
X6.4Y-4.475
X6.7026Y-4.3474
T2
X4.55Y-3.7
X4.55Y-4.6055
X4.5866Y-4.1413
X4.5866Y-4.4413
X4.65Y-3.7
X4.65Y-4.6055
X4.725Y-4.15
X4.725Y-4.45
X4.75Y-3.7
X4.75Y-4.6055
X4.85Y-3.7
X4.85Y-4.6055
X4.875Y-4.15
X4.875Y-4.45
X4.9Y-4.775
X4.9Y-4.875
X4.9Y-4.975
X4.95Y-3.7
X4.95Y-4.6055
X5.05Y-3.7
X5.05Y-3.85
X5.05Y-3.9484
X5.05Y-4.15
X5.05Y-4.45
X5.05Y-4.6055
X5.15Y-3.7
X5.15Y-4.6055
X5.175Y-3.85
X5.175Y-3.9484
X5.2Y-4.15
X5.2Y-4.45
X5.25Y-3.7
X5.25Y-4.6055
X5.35Y-3.7
X5.35Y-3.85
X5.35Y-4.0
X5.35Y-4.15
X5.35Y-4.3
X5.35Y-4.45
X5.35Y-4.6055
X5.45Y-3.7
X5.45Y-4.6055
X5.55Y-3.7
X5.55Y-4.6055
X5.5709Y-4.8524
X5.5709Y-4.9508
X5.65Y-3.7
X5.65Y-3.85
X5.65Y-4.0
X5.65Y-4.15
X5.65Y-4.3
X5.65Y-4.45
X5.65Y-4.6055
X5.7Y-4.8
X5.7Y-4.95
X5.75Y-3.7
X5.75Y-3.85
X5.75Y-4.0
X5.75Y-4.6055
X5.8Y-4.2016
X5.8Y-4.3
X5.85Y-3.7
X5.85Y-4.6055
X5.95Y-3.7
X5.95Y-4.6055
X6.0Y-4.8
X6.0Y-4.95
X6.05Y-3.7
X6.05Y-3.85
X6.05Y-4.0
X6.05Y-4.6055
X6.1Y-4.8
X6.1Y-4.95
X6.15Y-3.7
X6.15Y-3.85
X6.15Y-4.0
X6.15Y-4.6055
X6.25Y-3.7
X6.25Y-4.6055
X6.35Y-3.7
X6.35Y-4.6055
X6.4Y-4.8
X6.4Y-4.95
X6.45Y-3.7
X6.45Y-3.85
X6.45Y-4.0
X6.45Y-4.6055
X6.5Y-4.8
X6.5Y-4.95
X6.55Y-3.7
X6.55Y-4.6055
X6.65Y-3.7
X6.65Y-4.6055
X6.75Y-3.7
X6.75Y-4.6055
X6.8Y-4.8
X6.8Y-4.95
X6.8307Y-4.2224
X6.8307Y-4.3209
X6.85Y-3.7
X6.85Y-4.6055
T3
X5.051Y-5.149
X5.151Y-5.149
X5.251Y-5.149
X5.351Y-5.149
X5.451Y-5.149
X5.551Y-5.149
T4
X4.7819Y-5.375
X4.8364Y-5.4868
X4.8909Y-5.375
X4.9455Y-5.4868
X5.0Y-5.375
X5.0545Y-5.4868
X5.1091Y-5.375
X5.1636Y-5.4868
X5.2181Y-5.375
T5
X6.0586Y-5.2588
X6.0586Y-5.4588
X6.1037Y-5.3588
X6.1487Y-5.2588
X6.1487Y-5.4588
X6.1938Y-5.3588
X6.2389Y-5.2588
X6.2389Y-5.4588
X6.284Y-5.3588
X6.3291Y-5.2588
X6.3291Y-5.4588
X6.3741Y-5.3588
X6.4192Y-5.2588
X6.4192Y-5.4588
X6.4643Y-5.3588
T7
X4.5081Y-5.4309
X5.4919Y-5.4309
T8
X5.7568Y-5.3588
X6.7407Y-5.3588
T3
G00X4.7778Y-4.975
M15
G01X4.7266Y-4.975
M16
G05
T6
G00X4.575Y-5.0163
M15
G01X4.575Y-4.9337
M16
G05
M30
